<svg width="116" height="116" viewBox="0 0 116 116" fill="none" xmlns="http://www.w3.org/2000/svg">
<path d="M115.121 45.5708L96.9959 34.6958C96.4227 34.3514 95.7045 34.3514 95.1313 34.6958L87.0295 39.5578L77.9398 33.7737V12.6875C77.9398 12.0509 77.6067 11.4618 77.0607 11.1333L58.9334 0.258281C58.3602 -0.0860937 57.642 -0.0860937 57.0688 0.258281L38.9438 11.1333C38.3978 11.4618 38.0648 12.0509 38.0648 12.6875V33.7714L28.9751 39.5555L20.8732 34.6935C20.3 34.3491 19.5818 34.3491 19.0086 34.6935L0.879063 45.5708C0.333047 45.8993 0 46.4884 0 47.125V68.875C0 69.5116 0.333047 70.1007 0.879063 70.4292L19.0041 81.3042C19.2918 81.4764 19.6135 81.5625 19.9375 81.5625C20.2615 81.5625 20.5832 81.4764 20.8709 81.3042L37.768 71.1655L45.4892 76.0797L38.9416 80.0083C38.3955 80.3368 38.0625 80.9259 38.0625 81.5625V103.312C38.0625 103.949 38.3955 104.538 38.9416 104.867L57.0666 115.742C57.3543 115.914 57.676 116 58 116C58.324 116 58.6457 115.914 58.9334 115.742L77.0584 104.867C77.6045 104.538 77.9375 103.949 77.9375 103.312V81.5625C77.9375 80.9259 77.6045 80.3368 77.0584 80.0083L70.5108 76.0797L78.232 71.1655L95.1291 81.3042C95.4168 81.4764 95.7385 81.5625 96.0625 81.5625C96.3865 81.5625 96.7082 81.4764 96.9959 81.3042L115.121 70.4292C115.667 70.1007 116 69.5116 116 68.875V47.125C116 46.4884 115.667 45.8993 115.121 45.5708ZM96.0625 38.3638L110.664 47.125L96.0625 55.8862L81.4605 47.125L96.0625 38.3638ZM68.0345 27.4707C67.1894 26.9338 66.0702 27.183 65.5332 28.0258C64.9963 28.8709 65.2455 29.9901 66.0883 30.527L72.4094 34.5508L59.8102 42.1112V24.5888L74.3102 15.8888V31.465L68.0322 27.4707H68.0345ZM58 3.92633L72.602 12.6875L58 21.4487L43.398 12.6875L58 3.92633ZM41.6875 15.8888L56.1875 24.5888V42.1112L43.5884 34.5508L49.9095 30.527C50.7545 29.9901 51.0038 28.8686 50.4645 28.0258C49.9276 27.1807 48.8061 26.9315 47.9633 27.4707L41.6852 31.465V15.8888H41.6875ZM19.9375 38.3638L34.5395 47.125L19.9375 55.8862L5.33555 47.125L19.9375 38.3638ZM3.625 50.3263L18.125 59.0263V76.5487L3.625 67.8487V50.3263ZM21.75 76.5487V59.0263L36.25 50.3263V65.9025L29.972 61.9082C29.1269 61.3713 28.0077 61.6205 27.4707 62.4633C26.9338 63.3084 27.183 64.4276 28.0258 64.9645L34.3469 68.9883L21.7477 76.5487H21.75ZM41.6875 84.7638L56.1875 93.4638V110.986L41.6875 102.286V84.7638ZM59.8125 110.986V93.4638L74.3125 84.7638V102.286L59.8125 110.986ZM58 90.3237L43.398 81.5625L58 72.8013L72.602 81.5625L58 90.3237ZM58.9334 69.1333C58.3602 68.7889 57.642 68.7889 57.0688 69.1333L48.967 73.9953L39.8773 68.2112V47.1273C39.8773 46.4906 39.5442 45.9016 38.9982 45.573L32.4505 41.6445L40.1718 36.7303L57.0688 46.869C57.3566 47.0412 57.6783 47.1273 58.0023 47.1273C58.3263 47.1273 58.648 47.0412 58.9357 46.869L75.8327 36.7303L83.554 41.6445L77.0063 45.573C76.4603 45.9016 76.1273 46.4906 76.1273 47.1273V68.2112L67.0376 73.9953L58.9357 69.1333H58.9334ZM88.5293 62.4655C87.9923 61.6205 86.8709 61.3713 86.028 61.9105L79.75 65.9048V50.3286L94.25 59.0286V76.5509L81.6509 68.9905L87.972 64.9668C88.817 64.4298 89.0662 63.3084 88.527 62.4655H88.5293ZM97.875 76.5509V59.0286L112.375 50.3286V67.8509L97.875 76.5509Z" fill="url(#paint0_linear_101_21)"/>
<defs>
<linearGradient id="paint0_linear_101_21" x1="0" y1="0" x2="137.812" y2="76.9228" gradientUnits="userSpaceOnUse">
<stop stop-color="#6B8BFF"/>
<stop offset="1" stop-color="#335FFF"/>
</linearGradient>
</defs>
</svg>
