<svg width="98" height="74" viewBox="0 0 98 74" fill="none" xmlns="http://www.w3.org/2000/svg">
<path d="M92.867 53.457V7.992C92.867 4.0897 89.6912 0.917802 85.7928 0.917802L12.2068 0.913895C8.30447 0.913895 5.13257 4.08969 5.13257 7.98809V53.4531C2.69507 54.0898 0.886475 56.3086 0.886475 58.9453C0.886475 66.7383 7.22627 73.0823 15.0235 73.0823H82.9805C90.7735 73.0823 97.1175 66.7425 97.1175 58.9453C97.1136 56.3125 95.3084 54.0937 92.867 53.457ZM7.96098 7.992C7.96098 5.6522 9.86717 3.7459 12.2071 3.7459H85.7931C88.1329 3.7459 90.0392 5.6521 90.0392 7.992V53.273H85.7931V9.406C85.7931 8.62475 85.1603 7.9919 84.379 7.9919H13.625C12.8437 7.9919 12.2109 8.62471 12.2109 9.406V53.273H7.96088L7.96098 7.992ZM15.0391 53.273V10.82H82.9651V53.273H15.0391ZM66.7231 56.105L65.0239 60.3511L32.9769 60.3472L31.2777 56.1011L66.7231 56.105ZM82.9771 70.253H15.0241C8.78967 70.253 3.71907 65.1827 3.71907 58.948C3.71907 57.3777 4.99637 56.1003 6.56677 56.1003H28.2348L30.7075 62.2878C30.9223 62.8269 31.4419 63.1784 32.02 63.1784H65.981C66.5591 63.1784 67.0787 62.8269 67.2935 62.2878L69.7662 56.1003H91.4342C93.0045 56.1003 94.2819 57.3776 94.2819 58.948C94.2819 65.1824 89.2118 70.253 82.9771 70.253Z" fill="url(#paint0_linear_106_17)"/>
<path d="M74.945 26.387H55.605C52.7456 26.387 50.4175 28.7151 50.4175 31.5745V41.0081C50.4175 43.8675 52.7456 46.1956 55.605 46.1956H58.1988V49.0276C58.1988 49.5784 58.5191 50.0823 59.023 50.3128C59.523 50.5433 60.1168 50.4612 60.5347 50.1019L65.0894 46.1957L74.9449 46.1996C77.8043 46.1996 80.1324 43.8715 80.1324 41.0121V31.5785C80.1324 28.7152 77.8044 26.387 74.945 26.387ZM77.3005 41.008C77.3005 42.3088 76.2419 43.3674 74.9411 43.3674H64.5621C64.2261 43.3674 63.898 43.4885 63.6402 43.7072L61.023 45.9494V44.7814C61.023 44.0002 60.3902 43.3673 59.6089 43.3673H55.605C54.3042 43.3673 53.2456 42.3087 53.2456 41.0079V31.5743C53.2456 30.2735 54.3042 29.2149 55.605 29.2149H74.945C76.2458 29.2149 77.3044 30.2735 77.3044 31.5743L77.3005 41.008Z" fill="url(#paint1_linear_106_17)"/>
<path d="M73.055 32.047H57.493C56.7117 32.047 56.0789 32.6798 56.0789 33.4611C56.0789 34.2424 56.7117 34.8752 57.493 34.8752H73.059C73.8402 34.8752 74.4731 34.2424 74.4731 33.4611C74.4731 32.6798 73.8401 32.047 73.055 32.047Z" fill="url(#paint2_linear_106_17)"/>
<path d="M73.055 37.707H57.493C56.7117 37.707 56.0789 38.3398 56.0789 39.1211C56.0789 39.9024 56.7117 40.5352 57.493 40.5352H73.059C73.8402 40.5352 74.4731 39.9024 74.4731 39.1211C74.4731 38.3398 73.8401 37.707 73.055 37.707Z" fill="url(#paint3_linear_106_17)"/>
<path d="M42.395 13.652H23.055C20.1956 13.652 17.8675 15.9801 17.8675 18.8395V28.2731C17.8675 31.1325 20.1956 33.4606 23.055 33.4606H32.9105L37.4652 37.3668C37.8871 37.7262 38.4769 37.8082 38.9769 37.5777C39.4808 37.3473 39.8011 36.8434 39.8011 36.2925V33.4605H42.3949C45.2543 33.4605 47.5824 31.1324 47.5824 28.273V18.8394C47.5863 15.98 45.2583 13.652 42.395 13.652ZM44.7544 28.273C44.7544 29.5738 43.6958 30.6324 42.395 30.6324H38.3872C37.6059 30.6324 36.9731 31.2652 36.9731 32.0465V33.2145L34.3559 30.9723C34.0981 30.7536 33.7739 30.6325 33.434 30.6325H23.055C21.7542 30.6325 20.6956 29.5739 20.6956 28.2731V18.8395C20.6956 17.5387 21.7542 16.4801 23.055 16.4801H42.395C43.6958 16.4801 44.7544 17.5387 44.7544 18.8395L44.7544 28.273Z" fill="url(#paint4_linear_106_17)"/>
<path d="M40.508 19.312H24.942C24.1607 19.312 23.5279 19.9448 23.5279 20.7261C23.5279 21.5074 24.1607 22.1402 24.942 22.1402H40.508C41.2892 22.1402 41.9221 21.5074 41.9221 20.7261C41.926 19.9449 41.2932 19.312 40.508 19.312Z" fill="url(#paint5_linear_106_17)"/>
<path d="M40.508 24.973H24.942C24.1607 24.973 23.5279 25.6058 23.5279 26.3871C23.5279 27.1684 24.1607 27.8012 24.942 27.8012H40.508C41.2892 27.8012 41.9221 27.1684 41.9221 26.3871C41.926 25.6059 41.2932 24.973 40.508 24.973Z" fill="url(#paint6_linear_106_17)"/>
<defs>
<linearGradient id="paint0_linear_106_17" x1="0.886475" y1="0.913895" x2="97.8259" y2="68.0353" gradientUnits="userSpaceOnUse">
<stop stop-color="#6B8BFF"/>
<stop offset="1" stop-color="#335FFF"/>
</linearGradient>
<linearGradient id="paint1_linear_106_17" x1="50.4175" y1="26.387" x2="81.7927" y2="46.5125" gradientUnits="userSpaceOnUse">
<stop stop-color="#6B8BFF"/>
<stop offset="1" stop-color="#335FFF"/>
</linearGradient>
<linearGradient id="paint2_linear_106_17" x1="56.0789" y1="32.047" x2="58.2886" y2="39.5097" gradientUnits="userSpaceOnUse">
<stop stop-color="#6B8BFF"/>
<stop offset="1" stop-color="#335FFF"/>
</linearGradient>
<linearGradient id="paint3_linear_106_17" x1="56.0789" y1="37.707" x2="58.2886" y2="45.1697" gradientUnits="userSpaceOnUse">
<stop stop-color="#6B8BFF"/>
<stop offset="1" stop-color="#335FFF"/>
</linearGradient>
<linearGradient id="paint4_linear_106_17" x1="17.8675" y1="13.6519" x2="49.2427" y2="33.7774" gradientUnits="userSpaceOnUse">
<stop stop-color="#6B8BFF"/>
<stop offset="1" stop-color="#335FFF"/>
</linearGradient>
<linearGradient id="paint5_linear_106_17" x1="23.5279" y1="19.312" x2="25.7376" y2="26.7747" gradientUnits="userSpaceOnUse">
<stop stop-color="#6B8BFF"/>
<stop offset="1" stop-color="#335FFF"/>
</linearGradient>
<linearGradient id="paint6_linear_106_17" x1="23.5279" y1="24.973" x2="25.7376" y2="32.4357" gradientUnits="userSpaceOnUse">
<stop stop-color="#6B8BFF"/>
<stop offset="1" stop-color="#335FFF"/>
</linearGradient>
</defs>
</svg>
