<svg width="113" height="123" viewBox="0 0 113 123" fill="none" xmlns="http://www.w3.org/2000/svg">
<path d="M44.13 102.06C42.99 102.09 41.99 101.25 41.83 100.1C41.66 98.9 42.47 97.79 43.65 97.56C42.35 90.19 38.8 86.13 35.05 81.84C32.13 78.5 29.1 75.03 26.71 69.92C24.36 64.89 23.07 59.69 23.11 54.29C23.16 48.89 24.53 43.33 27.51 37.58C27.53 37.54 27.55 37.51 27.57 37.47C31.48 30.85 36.95 26.43 43.04 23.95C48.15 21.86 53.7 21.15 59.14 21.65C64.56 22.15 69.87 23.85 74.51 26.59C80.41 30.08 85.26 35.26 87.93 41.8C89.37 45.34 90.35 49.29 90.47 53.62C90.59 57.93 89.85 62.58 87.86 67.5C85.2 74.09 81.68 78.18 78.39 82.01C75.36 85.54 72.54 88.82 70.97 93.85C71.86 94.06 72.56 94.79 72.7 95.75C72.87 96.99 72 98.14 70.76 98.31L69.99 98.42C69.85 99.51 69.76 100.68 69.72 101.93L69.97 101.89C71.21 101.72 72.36 102.59 72.53 103.83C72.7 105.07 71.83 106.22 70.59 106.39L69.81 106.5C69.82 106.65 69.83 106.8 69.84 106.95C69.91 107.83 69.92 108.68 69.87 109.49L70 109.47C71.25 109.32 72.38 110.21 72.54 111.45C72.69 112.7 71.8 113.83 70.56 113.99L68.88 114.2C67.68 117.31 65.54 119.67 63.01 121.14C61.27 122.15 59.34 122.73 57.4 122.85C55.43 122.97 53.44 122.6 51.62 121.72C49.54 120.7 47.68 119.01 46.33 116.58C45.68 116.25 45.2 115.61 45.1 114.83C45.06 114.52 45.09 114.22 45.17 113.94C44.78 112.78 44.48 111.51 44.3 110.11L44.23 110.12C42.99 110.29 41.84 109.42 41.67 108.18C41.5 106.94 42.37 105.79 43.61 105.62L44.15 105.54C44.19 104.32 44.18 103.16 44.13 102.06ZM66.41 40.34C66.99 40.35 67.58 40.46 68.15 40.65C69.35 41.06 70.5 41.85 71.39 42.9C72.28 43.96 72.92 45.29 73.08 46.77C73.15 47.42 73.13 48.09 73 48.78C73.62 49.35 74.14 49.98 74.53 50.66C75.17 51.75 75.5 52.96 75.46 54.19C75.42 55.43 75.02 56.67 74.17 57.81C73.66 58.5 72.99 59.15 72.15 59.74C72.21 61.58 71.66 63.24 70.77 64.52C69.78 65.95 68.36 66.94 66.87 67.25C66.51 68.54 65.64 69.68 64.54 70.47C63.1 71.5 61.22 71.98 59.5 71.51C58.32 71.19 57.24 70.44 56.46 69.16C55.52 70.58 54.28 71.34 52.98 71.61C51.32 71.96 49.6 71.45 48.3 70.44C47.3 69.66 46.54 68.57 46.24 67.33C45.76 67.29 45.27 67.19 44.8 67.03C43.63 66.63 42.5 65.87 41.63 64.85C40.75 63.83 40.1 62.55 39.9 61.12C39.8 60.41 39.81 59.66 39.96 58.9C39.42 58.4 38.96 57.84 38.58 57.23C37.91 56.14 37.53 54.91 37.55 53.64C37.57 52.36 37.97 51.07 38.85 49.87C39.34 49.2 39.99 48.56 40.8 47.97C40.79 47.77 40.79 47.57 40.8 47.38C40.87 45.52 41.55 43.89 42.54 42.68C42.57 42.65 42.59 42.62 42.62 42.59C43.61 41.42 44.9 40.64 46.24 40.41C46.29 40.23 46.34 40.06 46.4 39.88C46.87 38.62 47.82 37.54 48.99 36.86C50.17 36.17 51.59 35.87 52.97 36.16C54.21 36.42 55.4 37.13 56.32 38.43C57.24 37.13 58.43 36.42 59.67 36.16C60.93 35.9 62.22 36.12 63.33 36.68C64.42 37.23 65.36 38.12 65.93 39.18C66.15 39.56 66.31 39.94 66.41 40.34ZM66.79 64.35C67.41 64.09 68.01 63.59 68.47 62.92C69.12 61.97 69.49 60.7 69.31 59.27L69.3 59.23V59.2C69.23 58.66 69.48 58.1 69.98 57.8C70.85 57.29 71.48 56.73 71.92 56.13C72.4 55.47 72.64 54.78 72.66 54.1C72.68 53.41 72.48 52.72 72.1 52.07C71.75 51.47 71.25 50.92 70.64 50.45C70.12 50.11 69.88 49.45 70.09 48.83C70.3 48.21 70.35 47.62 70.29 47.05C70.19 46.17 69.8 45.36 69.25 44.7C68.69 44.04 67.98 43.55 67.26 43.3C66.95 43.2 66.64 43.14 66.35 43.14C66.13 43.8 65.77 44.46 65.23 45.1C64.73 45.69 63.85 45.77 63.26 45.27C62.67 44.77 62.59 43.89 63.09 43.3C63.91 42.33 63.92 41.31 63.49 40.52C63.19 39.96 62.69 39.49 62.1 39.2C61.53 38.91 60.89 38.79 60.28 38.92C59.39 39.1 58.53 39.85 57.97 41.41V65.11C58.08 65.27 58.15 65.45 58.18 65.66C58.5 67.62 59.33 68.56 60.26 68.82C61.12 69.06 62.12 68.77 62.92 68.2C63.7 67.64 64.26 66.83 64.27 65.98C64.28 65.01 63.54 63.9 61.57 62.89C60.88 62.54 60.6 61.69 60.95 61C61.3 60.31 62.15 60.03 62.84 60.38C65.07 61.51 66.29 62.92 66.79 64.35ZM46.37 43.27C45.8 43.46 45.24 43.85 44.77 44.39C44.75 44.42 44.73 44.44 44.71 44.46C44.07 45.24 43.64 46.28 43.59 47.48C43.58 47.8 43.59 48.14 43.64 48.49C43.71 49.02 43.47 49.57 42.99 49.88C42.15 50.4 41.53 50.96 41.1 51.55C40.58 52.25 40.35 52.99 40.34 53.69C40.33 54.41 40.55 55.12 40.95 55.77C41.29 56.32 41.75 56.82 42.32 57.24C42.83 57.59 43.06 58.24 42.86 58.85C42.64 59.51 42.59 60.15 42.67 60.75C42.79 61.61 43.19 62.39 43.74 63.03C44.29 63.67 44.98 64.14 45.69 64.38C45.92 64.46 46.15 64.51 46.37 64.53C46.88 63.04 48.16 61.57 50.49 60.38C51.18 60.03 52.02 60.3 52.38 60.99C52.73 61.68 52.46 62.52 51.77 62.88C49.68 63.94 48.9 65.14 48.9 66.18C48.9 66.97 49.36 67.72 50.03 68.24C50.71 68.77 51.59 69.04 52.41 68.87C53.44 68.66 54.44 67.68 54.97 65.54C55 65.4 55.06 65.27 55.13 65.15V42.64C55.1 42.59 55.07 42.53 55.04 42.47L55.03 42.45L55.02 42.43L55.01 42.41V42.4V42.39L55 42.37V42.36V42.35C54.99 42.31 54.98 42.27 54.97 42.23C54.44 40.1 53.44 39.13 52.41 38.92C51.74 38.78 51.02 38.94 50.41 39.3C49.79 39.66 49.29 40.22 49.05 40.86C48.74 41.7 48.93 42.74 50 43.73C50.57 44.26 50.6 45.14 50.08 45.71C49.55 46.28 48.67 46.31 48.1 45.79C47.23 44.97 46.67 44.12 46.37 43.27ZM46.66 47.9C47.21 47.36 48.1 47.36 48.65 47.92C49.19 48.47 49.19 49.36 48.63 49.91C47.66 50.86 47.15 52.1 47.1 53.35C47.05 54.65 47.47 55.99 48.36 57.09C48.85 57.69 48.75 58.58 48.15 59.06C47.55 59.55 46.66 59.45 46.18 58.85C44.85 57.2 44.22 55.2 44.3 53.24C44.37 51.29 45.15 49.38 46.66 47.9ZM63.43 49.38C62.8 48.92 62.66 48.05 63.12 47.42C63.58 46.79 64.45 46.65 65.08 47.11C65.32 47.29 65.55 47.47 65.76 47.66C67.34 49.09 68.21 50.97 68.37 52.92C68.53 54.85 67.99 56.84 66.77 58.51C66.75 58.54 66.72 58.58 66.69 58.61C66.52 58.84 66.35 59.04 66.19 59.23C65.67 59.81 64.78 59.85 64.2 59.33C63.62 58.81 63.58 57.92 64.1 57.34C64.23 57.19 64.34 57.06 64.44 56.93C64.46 56.9 64.47 56.88 64.49 56.85C65.3 55.73 65.66 54.41 65.56 53.13C65.46 51.87 64.9 50.66 63.88 49.74C63.74 49.62 63.59 49.5 63.43 49.38ZM2.18001 58.86C1.01001 58.89 0.0400053 57.98 5.27455e-06 56.81C-0.0399947 55.64 0.880005 54.67 2.05001 54.63L10.75 54.33C11.92 54.29 12.89 55.21 12.93 56.38C12.97 57.55 12.05 58.52 10.88 58.56L2.18001 58.86ZM110.68 50.25C111.84 50.13 112.88 50.98 113 52.14C113.12 53.3 112.27 54.34 111.11 54.46L102.45 55.37C101.29 55.49 100.25 54.64 100.13 53.48C100.01 52.32 100.86 51.28 102.02 51.16L110.68 50.25ZM94.91 14.78C95.56 13.81 96.87 13.55 97.84 14.2C98.81 14.85 99.07 16.16 98.42 17.13L93.58 24.37C92.93 25.34 91.62 25.6 90.65 24.95C89.68 24.3 89.42 22.99 90.07 22.02L94.91 14.78ZM57.63 2.06C57.66 0.890004 58.63 -0.0299962 59.79 3.77244e-06C60.96 0.0300038 61.88 1 61.85 2.16L61.63 10.86C61.6 12.03 60.63 12.95 59.47 12.92C58.3 12.89 57.38 11.92 57.41 10.76L57.63 2.06ZM13.88 15.53C13.02 14.73 12.98 13.39 13.77 12.54C14.57 11.68 15.91 11.64 16.76 12.43L23.13 18.37C23.99 19.17 24.03 20.51 23.24 21.36C22.44 22.22 21.1 22.26 20.25 21.47L13.88 15.53ZM47.88 96.95L66.37 94.33C67.96 87.63 71.42 83.6 75.17 79.25C78.25 75.67 81.53 71.85 83.93 65.91C85.69 61.56 86.34 57.48 86.24 53.72C86.14 49.97 85.28 46.51 84 43.38C81.7 37.75 77.49 33.27 72.36 30.23C68.25 27.8 63.56 26.29 58.77 25.86C54 25.42 49.13 26.05 44.64 27.88C39.38 30.03 34.65 33.85 31.25 39.6C28.61 44.72 27.39 49.62 27.35 54.33C27.31 59.07 28.46 63.66 30.55 68.13C32.68 72.69 35.52 75.93 38.24 79.05C42.47 83.9 46.48 88.49 47.88 96.95ZM65.62 99.02L48.35 101.47C48.4 102.57 48.42 103.72 48.4 104.94L65.45 102.52C65.47 101.29 65.52 100.12 65.62 99.02ZM48.49 109.52C48.61 110.44 48.79 111.28 49.02 112.06L65.57 110.02C65.68 109.16 65.7 108.25 65.62 107.28V107.26L65.61 107.09L48.49 109.52ZM51.37 116.36C52.01 117.03 52.72 117.55 53.47 117.91C54.62 118.47 55.89 118.7 57.14 118.63C58.42 118.55 59.71 118.16 60.88 117.48C61.98 116.84 62.97 115.95 63.76 114.83L51.37 116.36Z" fill="url(#paint0_linear_101_8)"/>
<defs>
<linearGradient id="paint0_linear_101_8" x1="-0.00125122" y1="-0.000709534" x2="137.141" y2="65.4983" gradientUnits="userSpaceOnUse">
<stop stop-color="#6B8BFF"/>
<stop offset="1" stop-color="#335FFF"/>
</linearGradient>
</defs>
</svg>
