<svg width="80" height="59" viewBox="0 0 80 59" fill="none" xmlns="http://www.w3.org/2000/svg">
<path d="M4 0.0285034C1.8186 0.0285034 0 1.84616 0 4.02649V20.0187C0 22.199 1.8186 24.0167 4 24.0167H76C78.1814 24.0167 80 22.199 80 20.0187V4.02649C80 1.84616 78.1814 0.0285034 76 0.0285034H4ZM4 4.02649H76V20.0187H4V4.02649ZM14 9.02405C12.3671 9.02405 11 10.3902 11 12.0226C11 13.6549 12.3669 15.0211 14 15.0211C15.6331 15.0211 17 13.6548 17 12.0226C17 10.3902 15.6329 9.02405 14 9.02405ZM24 9.02405C22.3671 9.02405 21 10.3902 21 12.0226C21 13.6549 22.3669 15.0211 24 15.0211C25.6331 15.0211 27 13.6548 27 12.0226C27 10.3902 25.6329 9.02405 24 9.02405ZM34 9.02405C32.3671 9.02405 31 10.3902 31 12.0226C31 13.6549 32.3669 15.0211 34 15.0211C35.6331 15.0211 37 13.6548 37 12.0226C37 10.3902 35.6329 9.02405 34 9.02405ZM4 29.0142C1.8186 29.0142 0 30.8319 0 33.0123V49.0044C0 51.1847 1.8186 53.0024 4 53.0024H10V56.001C9.98506 57.0571 10.9433 58.0286 12 58.0286C13.0567 58.0286 14.0149 57.0571 14 56.001V53.0024H66V56.001C65.9851 57.0571 66.9433 58.0286 68 58.0286C69.0567 58.0286 70.0149 57.0571 70 56.001V53.0024H76C78.1814 53.0024 80 51.1847 80 49.0044V33.0123C80 30.8319 78.1814 29.0142 76 29.0142H4ZM4 33.0123H76V49.0044H4V33.0123ZM14 38.0098C12.3671 38.0098 11 39.3759 11 41.0083C11 42.6406 12.3669 44.0069 14 44.0069C15.6331 44.0069 17 42.6405 17 41.0083C17 39.376 15.6329 38.0098 14 38.0098ZM24 38.0098C22.3671 38.0098 21 39.3759 21 41.0083C21 42.6406 22.3669 44.0069 24 44.0069C25.6331 44.0069 27 42.6405 27 41.0083C27 39.376 25.6329 38.0098 24 38.0098ZM34 38.0098C32.3671 38.0098 31 39.3759 31 41.0083C31 42.6406 32.3669 44.0069 34 44.0069C35.6331 44.0069 37 42.6405 37 41.0083C37 39.376 35.6329 38.0098 34 38.0098Z" fill="url(#paint0_linear_108_28)"/>
<defs>
<linearGradient id="paint0_linear_108_28" x1="0" y1="0.0285034" x2="78.8012" y2="56.4685" gradientUnits="userSpaceOnUse">
<stop stop-color="#6B8BFF"/>
<stop offset="1" stop-color="#335FFF"/>
</linearGradient>
</defs>
</svg>
