<svg width="64" height="80" viewBox="0 0 64 80" fill="none" xmlns="http://www.w3.org/2000/svg">
<path d="M20 53C20 54.1046 19.1046 55 18 55H17C11.4772 55 7 50.5228 7 45V38.2814C7 37.7145 6.75936 37.1741 6.33793 36.7949L2.66207 33.4866C2.24064 33.1073 2 32.567 2 32C2 31.433 2.24064 30.8927 2.66207 30.5134L6.33793 27.2051C6.75936 26.8259 7 26.2855 7 25.7185V19C7 13.4772 11.4772 9 17 9H18C19.1046 9 20 9.89543 20 11C20 12.1046 19.1046 13 18 13H17C13.6863 13 11 15.6863 11 19V25.7185C11 27.4195 10.2781 29.0405 9.01379 30.1783L6.98969 32L9.01379 33.8217C10.2781 34.9595 11 36.5805 11 38.2814V45C11 48.3137 13.6863 51 17 51H18C19.1046 51 20 51.8954 20 53Z" fill="url(#paint0_linear_113_9)"/>
<path d="M44 53C44 54.1046 44.8954 55 46 55H47C52.5228 55 57 50.5228 57 45V38.2814C57 37.7145 57.2406 37.1741 57.6621 36.7949L61.3379 33.4866C61.7594 33.1073 62 32.567 62 32C62 31.433 61.7594 30.8927 61.3379 30.5134L57.6621 27.2051C57.2406 26.8259 57 26.2855 57 25.7185V19C57 13.4772 52.5228 9 47 9H46C44.8954 9 44 9.89543 44 11C44 12.1046 44.8954 13 46 13H47C50.3137 13 53 15.6863 53 19V25.7185C53 27.4195 53.7219 29.0405 54.9862 30.1783L57.0103 32L54.9862 33.8217C53.7219 34.9595 53 36.5805 53 38.2814V45C53 48.3137 50.3137 51 47 51H46C44.8954 51 44 51.8954 44 53Z" fill="url(#paint1_linear_113_9)"/>
<path d="M21.7196 25.4636C22.5682 24.7564 23.8293 24.8711 24.5364 25.7196C25.2436 26.5682 25.1289 27.8293 24.2804 28.5364L20.1241 32L24.2804 35.4636C25.1289 36.1707 25.2436 37.4318 24.5364 38.2804C23.8293 39.1289 22.5682 39.2436 21.7196 38.5364L17.5634 35.0729C15.6443 33.4737 15.6443 30.5263 17.5634 28.9271L21.7196 25.4636Z" fill="url(#paint2_linear_113_9)"/>
<path d="M38.3725 25.8375C39.0145 24.9387 40.2637 24.7305 41.1625 25.3725L46.0546 28.8669C48.1868 30.3899 48.3033 33.5173 46.2904 35.1947L42.2804 38.5364C41.4318 39.2436 40.1707 39.1289 39.4636 38.2804C38.7564 37.4318 38.8711 36.1707 39.7196 35.4636L43.7297 32.1219L38.8375 28.6275C37.9387 27.9854 37.7305 26.7363 38.3725 25.8375Z" fill="url(#paint3_linear_113_9)"/>
<path d="M37.7321 25C38.2843 24.0434 37.9566 22.8202 37 22.2679C36.0434 21.7157 34.8202 22.0434 34.2679 23L25.268 38.5885C24.7157 39.545 25.0434 40.7682 26 41.3205C26.9566 41.8728 28.1798 41.545 28.732 40.5885L37.7321 25Z" fill="url(#paint4_linear_113_9)"/>
<defs>
<linearGradient id="paint0_linear_113_9" x1="2" y1="9" x2="27.7621" y2="14.2347" gradientUnits="userSpaceOnUse">
<stop stop-color="#6B8BFF"/>
<stop offset="1" stop-color="#335FFF"/>
</linearGradient>
<linearGradient id="paint1_linear_113_9" x1="44" y1="9" x2="69.7621" y2="14.2347" gradientUnits="userSpaceOnUse">
<stop stop-color="#6B8BFF"/>
<stop offset="1" stop-color="#335FFF"/>
</linearGradient>
<linearGradient id="paint2_linear_113_9" x1="16.1241" y1="24.9999" x2="28.0586" y2="28.9289" gradientUnits="userSpaceOnUse">
<stop stop-color="#6B8BFF"/>
<stop offset="1" stop-color="#335FFF"/>
</linearGradient>
<linearGradient id="paint3_linear_113_9" x1="37.9998" y1="24.9998" x2="50.8295" y2="29.6298" gradientUnits="userSpaceOnUse">
<stop stop-color="#6B8BFF"/>
<stop offset="1" stop-color="#335FFF"/>
</linearGradient>
<linearGradient id="paint4_linear_113_9" x1="24.9997" y1="21.9997" x2="42.318" y2="27.9679" gradientUnits="userSpaceOnUse">
<stop stop-color="#6B8BFF"/>
<stop offset="1" stop-color="#335FFF"/>
</linearGradient>
</defs>
</svg>
