<svg width="46" height="24" viewBox="0 0 46 24" fill="none" xmlns="http://www.w3.org/2000/svg">
<path d="M13.87 1.21999C13.5875 0.941513 13.2067 0.7854 12.81 0.7854C12.4133 0.7854 12.0325 0.941513 11.75 1.21999L0.75 12.22L11.31 22.78C11.5913 23.0609 11.9725 23.2187 12.37 23.2187C12.7675 23.2187 13.1487 23.0609 13.43 22.78C13.5703 22.6414 13.6817 22.4763 13.7577 22.2944C13.8337 22.1124 13.8729 21.9172 13.8729 21.72C13.8729 21.5228 13.8337 21.3276 13.7577 21.1456C13.6817 20.9636 13.5703 20.7986 13.43 20.66L5 12.22L13.88 3.33999C14.1572 3.05615 14.3115 2.67465 14.3096 2.27794C14.3077 1.88124 14.1498 1.50121 13.87 1.21999Z" fill="url(#paint0_linear_115_28)"/>
<path d="M32.13 22.78C32.4129 23.0586 32.793 23.2164 33.19 23.22C33.387 23.2204 33.5821 23.1817 33.7641 23.1061C33.946 23.0306 34.1112 22.9198 34.25 22.78L45.25 11.78L34.69 1.21999C34.4075 0.941513 34.0267 0.7854 33.63 0.7854C33.2333 0.7854 32.8525 0.941513 32.57 1.21999C32.4297 1.35858 32.3183 1.52364 32.2423 1.7056C32.1663 1.88755 32.1271 2.08279 32.1271 2.27999C32.1271 2.47719 32.1663 2.67243 32.2423 2.85439C32.3183 3.03635 32.4297 3.2014 32.57 3.33999L41 11.78L32.12 20.66C31.8428 20.9438 31.6885 21.3253 31.6904 21.722C31.6923 22.1187 31.8502 22.4988 32.13 22.78Z" fill="url(#paint1_linear_115_28)"/>
<path d="M24.78 1.80999L18.3 21.24C18.2384 21.4303 18.2154 21.6311 18.2326 21.8304C18.2497 22.0297 18.3065 22.2236 18.3997 22.4007C18.4929 22.5777 18.6205 22.7343 18.7751 22.8613C18.9298 22.9883 19.1082 23.083 19.3 23.14C19.4518 23.19 19.6102 23.2169 19.77 23.22C20.0825 23.2218 20.3879 23.1266 20.6441 22.9475C20.9002 22.7683 21.0944 22.5142 21.2 22.22L27.68 2.78999C27.7424 2.60286 27.7673 2.40527 27.7533 2.20851C27.7393 2.01175 27.6867 1.81967 27.5985 1.64324C27.5103 1.46681 27.3882 1.30948 27.2392 1.18024C27.0901 1.05099 26.9171 0.952368 26.73 0.88999C26.5429 0.827613 26.3453 0.802704 26.1485 0.816687C25.9518 0.83067 25.7597 0.883272 25.5832 0.971488C25.4068 1.0597 25.2495 1.18181 25.1202 1.33082C24.991 1.47984 24.8924 1.65286 24.83 1.83999L24.78 1.80999Z" fill="url(#paint2_linear_115_28)"/>
<defs>
<linearGradient id="paint0_linear_115_28" x1="0.75" y1="0.7854" x2="32.9299" y2="33.9305" gradientUnits="userSpaceOnUse">
<stop stop-color="#6B8BFF"/>
<stop offset="1" stop-color="#335FFF"/>
</linearGradient>
<linearGradient id="paint1_linear_115_28" x1="0.75" y1="0.7854" x2="32.9299" y2="33.9305" gradientUnits="userSpaceOnUse">
<stop stop-color="#6B8BFF"/>
<stop offset="1" stop-color="#335FFF"/>
</linearGradient>
<linearGradient id="paint2_linear_115_28" x1="0.75" y1="0.7854" x2="32.9299" y2="33.9305" gradientUnits="userSpaceOnUse">
<stop stop-color="#6B8BFF"/>
<stop offset="1" stop-color="#335FFF"/>
</linearGradient>
</defs>
</svg>
