<svg width="100" height="125" viewBox="0 0 100 125" fill="none" xmlns="http://www.w3.org/2000/svg">
<path d="M40.87 39.22C40.5875 38.9415 40.2067 38.7854 39.81 38.7854C39.4133 38.7854 39.0325 38.9415 38.75 39.22L27.75 50.22L38.31 60.78C38.5913 61.0609 38.9725 61.2187 39.37 61.2187C39.7675 61.2187 40.1487 61.0609 40.43 60.78C40.5703 60.6414 40.6817 60.4763 40.7577 60.2944C40.8337 60.1124 40.8729 59.9172 40.8729 59.72C40.8729 59.5228 40.8337 59.3276 40.7577 59.1456C40.6817 58.9636 40.5703 58.7986 40.43 58.66L32 50.22L40.88 41.34C41.1572 41.0562 41.3115 40.6746 41.3096 40.2779C41.3077 39.8812 41.1498 39.5012 40.87 39.22Z" fill="url(#paint0_linear_114_17)"/>
<path d="M59.13 60.78C59.4128 61.0586 59.7929 61.2164 60.19 61.22C60.387 61.2204 60.5821 61.1817 60.7641 61.1061C60.946 61.0306 61.1112 60.9198 61.25 60.78L72.25 49.78L61.69 39.22C61.4075 38.9415 61.0267 38.7854 60.63 38.7854C60.2333 38.7854 59.8525 38.9415 59.57 39.22C59.4297 39.3586 59.3183 39.5236 59.2423 39.7056C59.1663 39.8876 59.1271 40.0828 59.1271 40.28C59.1271 40.4772 59.1663 40.6724 59.2423 40.8544C59.3183 41.0363 59.4297 41.2014 59.57 41.34L68 49.78L59.12 58.66C58.8428 58.9438 58.6885 59.3253 58.6904 59.722C58.6923 60.1187 58.8502 60.4988 59.13 60.78Z" fill="url(#paint1_linear_114_17)"/>
<path d="M51.78 39.81L45.3 59.24C45.2384 59.4304 45.2154 59.6311 45.2326 59.8304C45.2497 60.0298 45.3065 60.2237 45.3997 60.4007C45.4929 60.5777 45.6205 60.7344 45.7751 60.8613C45.9298 60.9883 46.1082 61.083 46.3 61.14C46.4518 61.19 46.6102 61.217 46.77 61.22C47.0825 61.2218 47.3879 61.1266 47.6441 60.9475C47.9002 60.7684 48.0944 60.5142 48.2 60.22L54.68 40.79C54.7424 40.6029 54.7673 40.4053 54.7533 40.2085C54.7393 40.0118 54.6867 39.8197 54.5985 39.6433C54.5103 39.4668 54.3882 39.3095 54.2392 39.1803C54.0901 39.051 53.9171 38.9524 53.73 38.89C53.5429 38.8276 53.3453 38.8027 53.1485 38.8167C52.9518 38.8307 52.7597 38.8833 52.5832 38.9715C52.4068 39.0597 52.2495 39.1818 52.1202 39.3308C51.991 39.4799 51.8924 39.6529 51.83 39.84L51.78 39.81Z" fill="url(#paint2_linear_114_17)"/>
<defs>
<linearGradient id="paint0_linear_114_17" x1="27.75" y1="38.7854" x2="46.1459" y2="44.5593" gradientUnits="userSpaceOnUse">
<stop stop-color="#6B8BFF"/>
<stop offset="1" stop-color="#335FFF"/>
</linearGradient>
<linearGradient id="paint1_linear_114_17" x1="58.6904" y1="38.7854" x2="77.0864" y2="44.559" gradientUnits="userSpaceOnUse">
<stop stop-color="#6B8BFF"/>
<stop offset="1" stop-color="#335FFF"/>
</linearGradient>
<linearGradient id="paint2_linear_114_17" x1="45.2271" y1="38.8129" x2="58.7693" y2="41.8038" gradientUnits="userSpaceOnUse">
<stop stop-color="#6B8BFF"/>
<stop offset="1" stop-color="#335FFF"/>
</linearGradient>
</defs>
</svg>
