<svg width="92" height="74" viewBox="0 0 92 74" fill="none" xmlns="http://www.w3.org/2000/svg">
<path d="M78.766 15.578C75.8129 14.203 72.6722 13.4999 69.4379 13.4999C60.8754 13.4999 53.0159 18.4999 49.4069 26.2499C45.2975 35.0468 47.4069 45.4059 54.5007 51.8909L47.2351 67.4529C46.8601 68.2342 47.2039 69.156 47.9851 69.531L57.1413 73.7966C57.3601 73.906 57.5788 73.9529 57.8132 73.9529C57.9851 73.9529 58.1726 73.9216 58.3444 73.8591C58.7351 73.7185 59.0476 73.4216 59.2194 73.0466L66.485 57.4846C67.4538 57.6096 68.4225 57.6721 69.3912 57.6721C77.9537 57.6721 85.8132 52.6721 89.4222 44.9381C94.5784 33.9071 89.7972 20.7351 78.7662 15.5791L78.766 15.578ZM69.391 54.547C68.2191 54.547 67.0316 54.4376 65.8754 54.2189C65.1567 54.0783 64.4692 54.4533 64.1566 55.0939L57.0472 70.3129L50.7191 67.3598L57.8285 52.1408C58.141 51.4845 57.9535 50.7189 57.4066 50.2658C54.1254 47.5939 51.9535 44.0002 51.0004 40.1098L77.7344 52.5938C75.1719 53.8594 72.3286 54.547 69.391 54.547ZM86.594 43.625C85.2815 46.4375 83.3128 48.8281 80.9221 50.6406C80.8752 50.6094 80.8127 50.5937 80.7659 50.5625L50.6569 36.4845C50.61 36.4532 50.5475 36.4376 50.485 36.422C50.3444 33.4376 50.9069 30.4064 52.235 27.5626C55.3288 20.922 62.0944 16.6246 69.438 16.6246C72.2192 16.6246 74.9068 17.234 77.438 18.4058C86.9068 22.8433 91.0158 34.14 86.594 43.625Z" fill="url(#paint0_linear_111_3)"/>
<path d="M44.766 67.453L37.5004 51.891C44.5942 45.4066 46.7035 35.047 42.5942 26.25C38.9848 18.5 31.1252 13.5 22.5632 13.5C19.3288 13.5 16.1882 14.2031 13.2351 15.5781C2.20411 20.7343 -2.57689 33.9061 2.57911 44.9371C6.18851 52.6715 14.0481 57.6711 22.6101 57.6711C23.5789 57.6711 24.5476 57.6086 25.5163 57.4836L32.7819 73.0456C32.9538 73.4206 33.2663 73.7175 33.6569 73.8581C33.8288 73.9206 34.0163 73.9519 34.1882 73.9519C34.4225 73.9519 34.6413 73.905 34.86 73.7956L44.0162 69.53C44.7975 69.155 45.1412 68.2331 44.7662 67.4519L44.766 67.453ZM5.40701 43.625C0.985112 34.1406 5.09451 22.844 14.5632 18.406C17.0944 17.2341 19.782 16.6248 22.5632 16.6248C29.907 16.6248 36.6722 20.9217 39.7662 27.5628C41.0943 30.4066 41.6568 33.4378 41.5162 36.4222C41.4537 36.4378 41.3912 36.4534 41.3443 36.4847L11.2353 50.5627C11.1885 50.5939 11.126 50.6096 11.0791 50.6408C8.68848 48.8283 6.71951 46.4375 5.40701 43.625ZM34.954 70.313L27.8446 55.094C27.579 54.5315 27.0165 54.1878 26.4227 54.1878C26.329 54.1878 26.2352 54.2034 26.1258 54.219C24.9696 54.4378 23.782 54.5471 22.6102 54.5471C19.6727 54.5471 16.829 53.8596 14.2664 52.594L41.0004 40.11C40.0473 44.0006 37.8754 47.5944 34.5942 50.266C34.0474 50.7191 33.8599 51.4848 34.1724 52.141L41.2817 67.36L34.954 70.313Z" fill="url(#paint1_linear_111_3)"/>
<path d="M46 17.355C41.2266 17.355 37.3477 13.4722 37.3477 8.69881C37.3477 3.92541 41.2305 0.0465088 46 0.0465088C50.7734 0.0465088 54.6523 3.92931 54.6523 8.69881C54.6523 13.4722 50.7734 17.355 46 17.355ZM46 3.17101C42.9531 3.17101 40.4727 5.65151 40.4727 8.69831C40.4727 11.7451 42.9532 14.2295 46 14.2295C49.0468 14.2295 51.5273 11.749 51.5273 8.69831C51.5273 5.65141 49.0468 3.17101 46 3.17101Z" fill="url(#paint2_linear_111_3)"/>
<defs>
<linearGradient id="paint0_linear_111_3" x1="47.0829" y1="13.4999" x2="104.866" y2="35.5447" gradientUnits="userSpaceOnUse">
<stop stop-color="#6B8BFF"/>
<stop offset="1" stop-color="#335FFF"/>
</linearGradient>
<linearGradient id="paint1_linear_111_3" x1="0.503113" y1="13.5" x2="58.2854" y2="35.545" gradientUnits="userSpaceOnUse">
<stop stop-color="#6B8BFF"/>
<stop offset="1" stop-color="#335FFF"/>
</linearGradient>
<linearGradient id="paint2_linear_111_3" x1="37.3477" y1="0.0465088" x2="57.662" y2="10.5927" gradientUnits="userSpaceOnUse">
<stop stop-color="#6B8BFF"/>
<stop offset="1" stop-color="#335FFF"/>
</linearGradient>
</defs>
</svg>
