<svg width="67" height="54" viewBox="0 0 67 54" fill="none" xmlns="http://www.w3.org/2000/svg">
<path d="M57.637 11.3849C55.4812 10.3811 53.1884 9.86783 50.8272 9.86783C44.5764 9.86783 38.8388 13.518 36.2041 19.1756C33.2042 25.5976 34.7441 33.16 39.9227 37.8942L34.6186 49.2549C34.3449 49.8252 34.5958 50.4982 35.1662 50.7719L41.8504 53.8859C42.0101 53.9658 42.1698 54 42.3409 54C42.4664 54 42.6033 53.9772 42.7287 53.9316C43.0139 53.8289 43.242 53.6122 43.3675 53.3384L48.6716 41.9778C49.3788 42.069 50.086 42.1146 50.7932 42.1146C57.044 42.1146 62.7817 38.4645 65.4163 32.8185C69.1805 24.7656 65.6901 15.1497 57.6372 11.3857L57.637 11.3849ZM50.793 39.8332C49.9375 39.8332 49.0706 39.7534 48.2265 39.5937C47.7018 39.491 47.2 39.7648 46.9718 40.2325L41.7817 51.3427L37.1621 49.1869L42.3521 38.0766C42.5802 37.5976 42.4434 37.0386 42.0441 36.7078C39.6488 34.7573 38.0632 32.1338 37.3674 29.2937L56.8839 38.4073C55.0132 39.3313 52.9375 39.8332 50.793 39.8332ZM63.3516 31.8599C62.3935 33.9131 60.9563 35.6583 59.211 36.9815C59.1768 36.9587 59.1312 36.9473 59.0969 36.9244L37.1166 26.6471C37.0824 26.6243 37.0368 26.6129 36.9911 26.6015C36.8885 24.4228 37.2991 22.21 38.2687 20.1339C40.5272 15.2861 45.4663 12.1489 50.8273 12.1489C52.8577 12.1489 54.8197 12.5938 56.6675 13.4492C63.58 16.6887 66.5797 24.9356 63.3516 31.8599Z" fill="url(#paint0_linear_111_3)"/>
<path d="M32.8161 49.2549L27.5121 37.8943C32.6907 33.1605 34.2306 25.5977 31.2307 19.1757C28.5957 13.518 22.858 9.86789 16.6075 9.86789C14.2463 9.86789 11.9536 10.3812 9.79779 11.385C1.74488 15.1491 -1.74536 24.7649 2.01864 32.8178C4.6536 38.4641 10.3913 42.1139 16.6418 42.1139C17.349 42.1139 18.0562 42.0683 18.7634 41.977L24.0674 53.3377C24.1929 53.6114 24.4211 53.8282 24.7062 53.9308C24.8317 53.9764 24.9686 53.9993 25.094 53.9993C25.2651 53.9993 25.4248 53.965 25.5845 53.8852L32.2688 50.7712C32.8391 50.4974 33.0901 49.8244 32.8163 49.2541L32.8161 49.2549ZM4.08308 31.8599C0.854984 24.936 3.85495 16.6892 10.7673 13.4494C12.6152 12.5939 14.5772 12.1491 16.6075 12.1491C21.9687 12.1491 26.9075 15.2859 29.1662 20.1341C30.1357 22.2101 30.5463 24.423 30.4437 26.6017C30.3981 26.6131 30.3525 26.6245 30.3182 26.6473L8.3379 36.9246C8.30368 36.9474 8.25805 36.9588 8.22384 36.9816C6.47864 35.6585 5.04124 33.9131 4.08308 31.8599ZM25.6531 51.3428L20.4631 40.2326C20.2692 39.8219 19.8585 39.571 19.4251 39.571C19.3566 39.571 19.2882 39.5824 19.2083 39.5938C18.3643 39.7535 17.4973 39.8333 16.6419 39.8333C14.4974 39.8333 12.4214 39.3314 10.5507 38.4075L30.0672 29.2939C29.3714 32.1341 27.7858 34.7577 25.3905 36.708C24.9912 37.0388 24.8544 37.5978 25.0825 38.0768L30.2725 49.1871L25.6531 51.3428Z" fill="url(#paint1_linear_111_3)"/>
<path d="M33.717 12.6821C30.2323 12.6821 27.4006 9.84761 27.4006 6.3629C27.4006 2.8782 30.2351 0.0465088 33.717 0.0465088C37.2017 0.0465088 40.0334 2.88105 40.0334 6.3629C40.0334 9.84761 37.2017 12.6821 33.717 12.6821ZM33.717 2.32747C31.4927 2.32747 29.6819 4.1383 29.6819 6.36254C29.6819 8.58678 31.4927 10.4005 33.717 10.4005C35.9412 10.4005 37.752 8.58963 37.752 6.36254C37.752 4.13823 35.9412 2.32747 33.717 2.32747Z" fill="url(#paint2_linear_111_3)"/>
<defs>
<linearGradient id="paint0_linear_111_3" x1="34.5076" y1="9.86783" x2="76.6903" y2="25.9611" gradientUnits="userSpaceOnUse">
<stop stop-color="#6B8BFF"/>
<stop offset="1" stop-color="#335FFF"/>
</linearGradient>
<linearGradient id="paint1_linear_111_3" x1="0.503113" y1="9.86789" x2="42.6856" y2="25.9613" gradientUnits="userSpaceOnUse">
<stop stop-color="#6B8BFF"/>
<stop offset="1" stop-color="#335FFF"/>
</linearGradient>
<linearGradient id="paint2_linear_111_3" x1="27.4006" y1="0.0465088" x2="42.2305" y2="7.7455" gradientUnits="userSpaceOnUse">
<stop stop-color="#6B8BFF"/>
<stop offset="1" stop-color="#335FFF"/>
</linearGradient>
</defs>
</svg>
