<svg width="57" height="42" viewBox="0 0 57 42" fill="none" xmlns="http://www.w3.org/2000/svg">
<path d="M17.8181 27.815C23.1302 27.815 27.4466 23.4339 27.4466 18.0567C27.4466 12.6731 23.1237 8.29845 17.8181 8.29845C12.5061 8.29845 8.18965 12.6796 8.18965 18.0567C8.18323 23.4339 12.5061 27.815 17.8181 27.815ZM17.8181 9.92591C22.2373 9.92591 25.8343 13.5714 25.8343 18.0502C25.8343 22.529 22.2373 26.1745 17.8181 26.1745C13.3989 26.1745 9.80189 22.529 9.80189 18.0502C9.80189 13.5714 13.3989 9.92591 17.8181 9.92591ZM1.93982 22.1189C3.1217 22.3532 3.9503 22.9196 4.27789 23.7138C4.60548 24.5145 4.41278 25.5105 3.73191 26.5261C3.17309 27.3593 3.21805 28.453 3.82826 29.2407C4.68256 30.3343 5.66531 31.3368 6.74442 32.2027C7.52164 32.8276 8.60074 32.8732 9.42934 32.3068C10.4314 31.6233 11.4141 31.4215 12.2042 31.7535C12.9943 32.0855 13.5531 32.9318 13.7843 34.1361C13.9706 35.1256 14.7606 35.8742 15.7498 35.9849C16.4371 36.063 17.1244 36.1021 17.8117 36.1021C18.499 36.1021 19.1927 36.063 19.8736 35.9849C20.8627 35.8677 21.6528 35.1256 21.8391 34.1361C22.0703 32.9318 22.6291 32.0855 23.4192 31.7535C24.2093 31.4215 25.192 31.6168 26.194 32.3068C27.0162 32.8732 28.0953 32.8341 28.879 32.2027C29.9581 31.3303 30.9408 30.3343 31.7951 29.2407C32.4118 28.453 32.4503 27.3593 31.8915 26.5261C31.217 25.5105 31.0243 24.5145 31.3455 23.7138C31.6731 22.9196 32.5017 22.3532 33.6836 22.1189C34.6599 21.9236 35.3922 21.1229 35.5014 20.1204C35.6555 18.7468 35.6555 17.3602 35.5014 15.9866C35.3857 14.9841 34.6535 14.1834 33.6836 13.9881C32.5017 13.7537 31.6731 13.1874 31.3455 12.3931C31.0179 11.5924 31.2106 10.5964 31.8915 9.58089C32.4503 8.74763 32.4053 7.65397 31.7887 6.86628C30.9344 5.77262 29.9517 4.7701 28.8725 3.90429C28.0953 3.27934 27.0162 3.23377 26.1876 3.80013C25.1856 4.49018 24.2028 4.68547 23.4128 4.35347C22.6227 4.02147 22.0639 3.17518 21.8327 1.97086C21.6464 0.981362 20.8563 0.232728 19.8671 0.12206C18.499 -0.0406866 17.1116 -0.0406866 15.7434 0.12206C14.7542 0.239237 13.9642 0.981362 13.7779 1.97086C13.5467 3.17518 12.9878 4.02147 12.1978 4.35347C11.4077 4.68547 10.4249 4.49018 9.42292 3.80013C8.60074 3.23377 7.52164 3.27283 6.738 3.90429C5.65889 4.7701 4.67613 5.77262 3.82184 6.86628C3.20521 7.65397 3.16667 8.74763 3.72549 9.58089C4.39993 10.5964 4.59263 11.5924 4.27147 12.3931C3.94388 13.1874 3.11528 13.7537 1.9334 13.9881C0.957065 14.1834 0.224814 14.9841 0.115619 15.9866C-0.0385396 17.3602 -0.0385396 18.7468 0.115619 20.1204C0.231237 21.1229 0.963489 21.9236 1.93982 22.1189ZM1.72786 16.1689C1.75997 15.8694 1.96552 15.6481 2.25456 15.596C3.98242 15.2575 5.23496 14.3396 5.77451 13.0181C6.31406 11.6966 6.06998 10.1472 5.07437 8.663C4.90737 8.41562 4.92022 8.11617 5.10007 7.88181C5.87728 6.88581 6.77011 5.97443 7.75287 5.18673C7.98411 4.99795 8.27958 4.99144 8.52366 5.15418C9.98817 6.1567 11.5169 6.41059 12.8208 5.86376C14.1312 5.31693 15.0304 4.041 15.3644 2.27682C15.4222 1.98388 15.6406 1.77556 15.9297 1.74302C17.1758 1.5998 18.4348 1.5998 19.6809 1.74302C19.9763 1.77556 20.1947 1.98388 20.2461 2.27682C20.5801 4.041 21.4858 5.31693 22.7897 5.86376C24.0936 6.41059 25.6224 6.16321 27.0869 5.15418C27.331 4.98493 27.6264 4.99795 27.8577 5.18673C28.8404 5.97443 29.7333 6.88581 30.5105 7.88181C30.6903 8.11617 30.7032 8.41562 30.5362 8.663C29.547 10.1472 29.2965 11.6966 29.836 13.0181C30.3756 14.3396 31.6281 15.251 33.356 15.596C33.645 15.6546 33.8506 15.8759 33.8827 16.1689C34.024 17.4188 34.024 18.6817 33.8827 19.9316C33.8506 20.231 33.645 20.4524 33.356 20.5044C31.6281 20.8429 30.3756 21.7608 29.836 23.0823C29.2965 24.4038 29.5406 25.9532 30.5362 27.4374C30.7032 27.6848 30.6903 27.9843 30.5105 28.2186C29.7333 29.2146 28.8404 30.1195 27.8577 30.9137C27.6264 31.1025 27.331 31.109 27.0869 30.9463C25.6224 29.9437 24.0936 29.6898 22.7897 30.2367C21.4794 30.7835 20.5801 32.0594 20.2461 33.8236C20.1883 34.1166 19.9699 34.3249 19.6809 34.3574C18.4348 34.5006 17.1758 34.5006 15.9297 34.3574C15.6342 34.3249 15.4158 34.1166 15.3644 33.8236C15.0304 32.0594 14.1247 30.7835 12.8208 30.2367C12.3712 30.0479 11.8895 29.9502 11.3949 29.9502C10.4635 29.9502 9.48073 30.2822 8.51724 30.9397C8.27316 31.109 7.97769 31.096 7.74645 30.9072C6.76369 30.1195 5.87086 29.2081 5.09364 28.2121C4.91379 27.9778 4.90095 27.6783 5.06795 27.4309C6.05713 25.9467 6.30764 24.4038 5.76809 23.0758C5.22853 21.7543 3.976 20.8429 2.24814 20.4979C1.95909 20.4393 1.75355 20.218 1.72143 19.9251C1.58654 18.6882 1.58654 17.4188 1.72786 16.1689ZM45.4253 36.3625C48.7268 36.3625 51.4053 33.6413 51.4053 30.3018C51.4053 26.9622 48.7204 24.2411 45.4253 24.2411C42.1302 24.2411 39.4452 26.9622 39.4452 30.3018C39.4452 33.6413 42.1237 36.3625 45.4253 36.3625ZM45.4253 25.8751C47.834 25.8751 49.7931 27.8606 49.7931 30.3018C49.7931 32.743 47.834 34.7285 45.4253 34.7285C43.0166 34.7285 41.0575 32.743 41.0575 30.3018C41.0575 27.8606 43.0166 25.8751 45.4253 25.8751ZM36.5933 26.6042C36.3685 27.151 35.7069 27.3593 35.3343 27.4309C34.5892 27.5807 34.0304 28.1926 33.9469 28.9542C33.8442 29.8461 33.8442 30.7444 33.9469 31.6363C34.0304 32.398 34.5892 33.0099 35.3343 33.1596C35.7069 33.2312 36.3685 33.4395 36.5933 33.9864C36.8181 34.5397 36.4905 35.1581 36.2786 35.4771C35.8546 36.1151 35.8867 36.9483 36.3556 37.5473C36.908 38.2568 37.5504 38.9078 38.2505 39.4677C38.8479 39.9494 39.67 39.9754 40.2995 39.5458C40.6143 39.331 41.2309 38.999 41.7769 39.2268C42.3229 39.4546 42.522 40.1317 42.5991 40.5092C42.7404 41.2644 43.3442 41.8307 44.1021 41.9219C44.5453 41.974 44.9949 42 45.4381 42C45.8878 42 46.331 41.974 46.7742 41.9219C47.5321 41.8307 48.1295 41.2644 48.2772 40.5092C48.3479 40.1252 48.5534 39.4546 49.0994 39.2203C49.6454 38.9924 50.2556 39.3244 50.5703 39.5393C51.1998 39.9689 52.022 39.9364 52.6193 39.4612C53.3195 38.8948 53.9554 38.2503 54.5142 37.5407C54.9831 36.9353 55.0152 36.1086 54.5913 35.4706C54.3793 35.1516 54.0517 34.5267 54.2765 33.9798C54.5014 33.433 55.1629 33.2247 55.5355 33.1531C56.2806 33.0034 56.8394 32.3914 56.9229 31.6298C57.0257 30.7379 57.0257 29.8396 56.9229 28.9477C56.8394 28.1861 56.2806 27.5741 55.5355 27.4244C55.1629 27.3528 54.5014 27.1445 54.2765 26.5977C54.0517 26.0443 54.3793 25.4259 54.5913 25.1069C55.0152 24.4689 54.9831 23.6357 54.5142 23.0368C53.9618 22.3272 53.3195 21.6762 52.6193 21.1164C52.022 20.6346 51.1998 20.6086 50.5703 21.0382C50.2556 21.2531 49.6389 21.5851 49.0994 21.3572C48.5534 21.1294 48.3543 20.4524 48.2772 20.0683C48.1359 19.3131 47.5321 18.7468 46.7742 18.6556C45.8878 18.5515 44.9885 18.5515 44.0957 18.6556C43.3377 18.7468 42.7404 19.3131 42.5926 20.0683C42.522 20.4524 42.3164 21.1229 41.7705 21.3572C41.2245 21.5851 40.6143 21.2531 40.2931 21.0382C39.6636 20.6086 38.8414 20.6411 38.2441 21.1164C37.5439 21.6827 36.908 22.3272 36.3492 23.0368C35.8803 23.6422 35.8482 24.4689 36.2721 25.1069C36.4905 25.4389 36.8181 26.0573 36.5933 26.6042ZM38.0835 27.2356C38.4625 26.3047 38.2955 25.2241 37.6146 24.202C37.5825 24.1565 37.5825 24.1109 37.621 24.0653C38.0963 23.4534 38.6487 22.8936 39.2525 22.4118C39.2975 22.3728 39.3425 22.3728 39.3874 22.4053C40.4023 23.1019 41.4621 23.2711 42.3871 22.8805C43.312 22.4965 43.9415 21.6111 44.1728 20.3938C44.1856 20.3352 44.2177 20.3026 44.2755 20.2961C45.0399 20.205 45.8171 20.205 46.5815 20.2961C46.6393 20.3026 46.6714 20.3352 46.6842 20.3938C46.9155 21.6111 47.5514 22.4965 48.4699 22.8805C49.3884 23.2646 50.4547 23.0954 51.4696 22.4053C51.5145 22.3728 51.5595 22.3728 51.6109 22.4118C52.2147 22.9001 52.7606 23.4534 53.2424 24.0653C53.2809 24.1109 53.2809 24.1565 53.2488 24.2085C52.568 25.2306 52.4009 26.3112 52.7799 27.2421C53.1589 28.1731 54.026 28.8175 55.2208 29.0519C55.2786 29.0649 55.3107 29.0975 55.3171 29.156C55.4006 29.9242 55.4006 30.6989 55.3171 31.467C55.3107 31.5256 55.2786 31.5582 55.2208 31.5712C54.026 31.8056 53.1589 32.45 52.7799 33.3809C52.4009 34.3119 52.568 35.3925 53.2488 36.4145C53.2809 36.4601 53.2809 36.5057 53.2424 36.5512C52.7671 37.1632 52.2147 37.723 51.6109 38.2047C51.5659 38.2438 51.521 38.2438 51.4696 38.2113C50.4547 37.5147 49.3949 37.3454 48.4699 37.736C47.545 38.1201 46.9155 39.0055 46.6842 40.2228C46.6714 40.2814 46.6393 40.3139 46.5815 40.3205C45.8171 40.4116 45.0399 40.4116 44.2755 40.3205C44.2177 40.3139 44.1856 40.2814 44.1728 40.2228C43.9415 39.0055 43.3056 38.1201 42.3871 37.736C42.0659 37.5993 41.7255 37.5342 41.3722 37.5342C40.7235 37.5342 40.049 37.7621 39.3874 38.2113C39.3425 38.2438 39.2975 38.2438 39.2525 38.2047C38.6487 37.7165 38.1028 37.1632 37.621 36.5512C37.5825 36.5057 37.5825 36.4601 37.6146 36.4145C38.2955 35.3925 38.4625 34.3119 38.0835 33.3809C37.7045 32.45 36.8374 31.8056 35.6427 31.5712C35.5849 31.5582 35.5527 31.5256 35.5463 31.467C35.4628 30.6989 35.4628 29.9242 35.5463 29.156C35.5527 29.0975 35.5849 29.0649 35.6427 29.0519C36.8374 28.8045 37.7045 28.1665 38.0835 27.2356Z" fill="url(#paint0_linear_119_3)"/>
<defs>
<linearGradient id="paint0_linear_119_3" x1="0" y1="0" x2="56.7594" y2="39.9996" gradientUnits="userSpaceOnUse">
<stop stop-color="#6B8BFF"/>
<stop offset="1" stop-color="#335FFF"/>
</linearGradient>
</defs>
</svg>
